<svg xmlns="http://www.w3.org/2000/svg" viewBox="0 0 750 500"><g id="freepik--background-simple--inject-97"><path d="M476.73,134.71C379.26,91.79,279,34.78,165.76,63.17c-35.11,8.8-67.06,29-88.66,57.48-57.75,76.23-53,190-21.68,272.62A143.94,143.94,0,0,0,71.21,424c31.85,46.18,85.51,46.65,137.28,31.3,43.8-13,82.61-26.15,127.86-15.88,25.06,5.69,49.35,13.83,74.32,19.82,34,8.15,69.05,13.3,104.45,12.78,93.67-1.38,200.67-50.79,209-151.55a152.7,152.7,0,0,0,.33-19.6c-1.87-40.05-15.67-79.78-53.93-99.36-38.46-19.68-84.09-26.46-125.23-40C521.87,153.88,499.17,144.59,476.73,134.71Z" style="fill:#92E3A9"></path><path d="M476.73,134.71C379.26,91.79,279,34.78,165.76,63.17c-35.11,8.8-67.06,29-88.66,57.48-57.75,76.23-53,190-21.68,272.62A143.94,143.94,0,0,0,71.21,424c31.85,46.18,85.51,46.65,137.28,31.3,43.8-13,82.61-26.15,127.86-15.88,25.06,5.69,49.35,13.83,74.32,19.82,34,8.15,69.05,13.3,104.45,12.78,93.67-1.38,200.67-50.79,209-151.55a152.7,152.7,0,0,0,.33-19.6c-1.87-40.05-15.67-79.78-53.93-99.36-38.46-19.68-84.09-26.46-125.23-40C521.87,153.88,499.17,144.59,476.73,134.71Z" style="fill:#fff;opacity:0.7000000000000001"></path></g><g id="freepik--Floor--inject-97"><rect x="39.04" y="424.65" width="689.25" height="1" style="fill:#263238"></rect></g><g id="freepik--Wall--inject-97"><rect x="39.04" y="227.88" width="689.25" height="197.27" style="opacity:0.1"></rect><rect x="39.04" y="227.38" width="689.25" height="1" style="fill:#263238"></rect></g><g id="freepik--Clock--inject-97"><circle cx="523.07" cy="136.49" r="22.92" style="fill:#92E3A9"></circle><path d="M523.07,159.91a23.42,23.42,0,1,1,23.42-23.42A23.45,23.45,0,0,1,523.07,159.91Zm0-45.84a22.42,22.42,0,1,0,22.42,22.42A22.45,22.45,0,0,0,523.07,114.07Z" style="fill:#263238"></path><circle cx="523.07" cy="136.49" r="19.6" style="fill:#fff"></circle><path d="M523.07,156.6a20.11,20.11,0,1,1,20.1-20.11A20.12,20.12,0,0,1,523.07,156.6Zm0-39.21a19.11,19.11,0,1,0,19.1,19.1A19.12,19.12,0,0,0,523.07,117.39Z" style="fill:#263238"></path><polygon points="523.57 144.54 522.57 144.54 522.57 135.99 538.73 135.99 538.73 136.99 523.57 136.99 523.57 144.54" style="fill:#263238"></polygon><circle cx="523.07" cy="136.49" r="1.44" style="fill:#263238"></circle></g><g id="freepik--Curtain--inject-97"><rect x="459.01" y="110.63" width="15.3" height="311.21" style="fill:#92E3A9"></rect><path d="M474.81,422.34h-16.3V110.13h16.3Zm-15.3-1h14.3V111.13h-14.3Z" style="fill:#263238"></path><rect x="462.51" y="110.63" width="8.29" height="311.21" style="fill:#92E3A9"></rect><path d="M471.3,422.34H462V110.13h9.29Zm-8.29-1h7.29V111.13H463Z" style="fill:#263238"></path><path d="M474.2,114.78H137.63a3.72,3.72,0,0,1-3.72-3.71h0a3.73,3.73,0,0,1,3.72-3.72H474.2a3.72,3.72,0,0,1,3.71,3.72h0A3.71,3.71,0,0,1,474.2,114.78Z" style="fill:#fff"></path><path d="M474.2,115.28H137.63a4.22,4.22,0,1,1,0-8.43H474.2a4.22,4.22,0,0,1,0,8.43Zm-336.57-7.43a3.22,3.22,0,1,0,0,6.43H474.2a3.22,3.22,0,0,0,0-6.43Z" style="fill:#263238"></path></g><g id="freepik--Bed--inject-97"><rect x="165.75" y="389.02" width="175.25" height="15.6" style="fill:#263238"></rect><path d="M341.5,405.12H165.25v-16.6H341.5Zm-175.25-1H340.5v-14.6H166.25Z" style="fill:#263238"></path><path d="M322.64,259.48c-4.52-.18-11,.42-15.71-1.48-11.26-4.52-24.81-7.36-37.22-9.06a101.34,101.34,0,0,0-16.13-.89,101.21,101.21,0,0,0-16.12.89c-12.42,1.7-26,4.54-37.23,9.06-4.75,1.9-11.18,1.3-15.71,1.48a6.58,6.58,0,0,0-6.34,6.58v53.78H329V266.06A6.58,6.58,0,0,0,322.64,259.48ZM209.07,270.07s-12,2.47-18,2.82-4.24-4.59,0-7.42,17.31-1.41,22.26-5.65Zm57.56-6.32a80.33,80.33,0,0,0-13-.72,80.21,80.21,0,0,0-13,.72,160.43,160.43,0,0,0-18.84,3.66c.13-1.82,1-5.52,5.5-9.44,4.47-1,9-1.76,13.34-2.35a81.35,81.35,0,0,1,13-.72,81.47,81.47,0,0,1,13,.72c3.36.46,6.83,1,10.3,1.72,4.66,3.76,5.89,7.4,6.18,9.48A164,164,0,0,0,266.63,263.75Zm48.78,9.14c-6-.35-18-2.82-18-2.82l-4.24-10.25c5,4.24,18,2.83,22.26,5.65S321.42,273.25,315.41,272.89Z" style="fill:#fff"></path><path d="M329.48,320.34H177.68V266.06A7.07,7.07,0,0,1,184.5,259c1.07,0,2.24,0,3.48,0,4,0,8.52,0,12.07-1.41,9.86-3.95,22.77-7.09,37.34-9.08a100.92,100.92,0,0,1,16.21-.9,100.62,100.62,0,0,1,16.17.9c14.57,2,27.49,5.13,37.35,9.08,3.54,1.42,8.07,1.41,12.07,1.41,1.24,0,2.4,0,3.47,0a7.06,7.06,0,0,1,6.82,7.08Zm-150.8-1h149.8V266.06a6.07,6.07,0,0,0-5.86-6.08h0c-1.05,0-2.2,0-3.43,0-4.09,0-8.72,0-12.44-1.48-9.79-3.92-22.62-7-37.11-9a98.82,98.82,0,0,0-16-.89,98.93,98.93,0,0,0-16.07.89c-14.49,2-27.33,5.1-37.11,9-3.73,1.49-8.37,1.48-12.45,1.48-1.22,0-2.38,0-3.43,0a6.07,6.07,0,0,0-5.86,6.08ZM316,273.41c-.2,0-.4,0-.62,0-6-.35-18-2.81-18.09-2.83l-.26-.06-5.14-12.42,1.59,1.36c2.63,2.26,7.93,2.87,12.6,3.41,3.92.46,7.63.89,9.61,2.21,2.91,1.94,4.58,4.68,4,6.51C319.37,272.43,318.49,273.41,316,273.41Zm-.56-1c1.82.11,3-.29,3.27-1.14.45-1.34-1.16-3.75-3.58-5.36-1.78-1.19-5.36-1.6-9.16-2-4.3-.5-8.72-1-11.71-2.67l3.49,8.45C299.53,270,310,272.08,315.44,272.39Zm-125,1c-2.49,0-3.37-1-3.65-1.84-.62-1.83,1.05-4.57,4-6.51,2-1.32,5.68-1.75,9.6-2.21,4.68-.54,10-1.15,12.61-3.41l1.59-1.36-5.14,12.42-.26.06c-.12,0-12.12,2.48-18.09,2.83C190.86,273.41,190.65,273.41,190.46,273.41Zm21.74-12.23c-3,1.66-7.41,2.17-11.71,2.67-3.8.44-7.38.85-9.16,2-2.42,1.61-4,4-3.58,5.36.29.85,1.45,1.25,3.27,1.14,5.41-.31,15.9-2.4,17.69-2.76Zm9,6.89.05-.69c.13-1.93,1-5.76,5.66-9.78l.09-.09.13,0c4.3-.95,8.81-1.74,13.38-2.37a82.27,82.27,0,0,1,13.13-.72,82.16,82.16,0,0,1,13.1.72c3.44.48,6.92,1.06,10.33,1.73l.12,0,.09.08c4.9,3.95,6.1,7.84,6.37,9.8l.1.73-.71-.17a164.91,164.91,0,0,0-16.44-3.07h0a81.25,81.25,0,0,0-13-.71,81.43,81.43,0,0,0-13,.71,161.35,161.35,0,0,0-18.78,3.65Zm6.27-9.63c-3.74,3.3-4.85,6.41-5.15,8.3a162.1,162.1,0,0,1,18.19-3.49,82.15,82.15,0,0,1,13.13-.72,82.09,82.09,0,0,1,13.1.72h0c5.53.76,10.84,1.74,15.78,2.91-.43-2-1.77-5.1-5.77-8.35-3.35-.66-6.76-1.23-10.15-1.7a81.38,81.38,0,0,0-13-.71,81.5,81.5,0,0,0-13,.71C236.1,256.73,231.67,257.51,227.43,258.44Z" style="fill:#263238"></path><path d="M332.09,369.13h-157l9.42-92.67a6.56,6.56,0,0,1,6.55-6.56H316.11a6.56,6.56,0,0,1,6.56,6.56Z" style="fill:#92E3A9"></path><path d="M332.64,369.63H174.53l.05-.55L184,276.41a7.05,7.05,0,0,1,7.05-7H316.11a7.07,7.07,0,0,1,7.06,7.06Zm-157-1h155.9l-9.36-92.12a6.08,6.08,0,0,0-6.06-6.11H191.05a6.06,6.06,0,0,0-6.05,6.06Z" style="fill:#263238"></path><path d="M344.7,373h-5.34v-55.2a2.68,2.68,0,0,1,2.67-2.67h0a2.68,2.68,0,0,1,2.67,2.67Z" style="fill:#fff"></path><path d="M345.2,373.48h-6.34v-55.7a3.17,3.17,0,0,1,6.34,0Zm-5.34-1h4.34v-54.7a2.17,2.17,0,0,0-4.34,0Z" style="fill:#263238"></path><path d="M334,334.94h-5.33v-55.2a2.66,2.66,0,0,1,2.66-2.67h0a2.66,2.66,0,0,1,2.67,2.67Z" style="fill:#fff"></path><path d="M334.48,335.44h-6.33v-55.7a3.17,3.17,0,1,1,6.33,0Zm-5.33-1h4.33v-54.7a2.17,2.17,0,1,0-4.33,0Z" style="fill:#263238"></path><path d="M178.58,334.94h-5.34v-55.2a2.67,2.67,0,0,1,2.67-2.67h0a2.66,2.66,0,0,1,2.67,2.67Z" style="fill:#fff"></path><path d="M179.08,335.44h-6.34v-55.7a3.17,3.17,0,1,1,6.34,0Zm-5.34-1h4.34v-54.7a2.17,2.17,0,1,0-4.34,0Z" style="fill:#263238"></path><path d="M168.62,373h-5.33v-55.2a2.67,2.67,0,0,1,2.67-2.67h0a2.67,2.67,0,0,1,2.66,2.67Z" style="fill:#fff"></path><path d="M169.12,373.48h-6.33v-55.7a3.17,3.17,0,1,1,6.33,0Zm-5.33-1h4.33v-54.7a2.17,2.17,0,1,0-4.33,0Z" style="fill:#263238"></path><path d="M333.81,314.3c-5.26-.2-12.73.49-18.25-1.72-13.08-5.24-28.82-8.54-43.25-10.52a116.31,116.31,0,0,0-18.73-1,116.37,116.37,0,0,0-18.73,1c-14.42,2-30.16,5.28-43.24,10.52-5.52,2.21-13,1.52-18.25,1.72A7.66,7.66,0,0,0,166,322v62.48H341.17V322A7.66,7.66,0,0,0,333.81,314.3ZM201.87,326.61s-14,2.87-20.93,3.28-4.93-5.34,0-8.62,20.11-1.64,25.85-6.57Zm66.87-7.35a93.87,93.87,0,0,0-15.16-.83,93.75,93.75,0,0,0-15.15.83,188,188,0,0,0-21.88,4.26c.15-2.12,1.18-6.42,6.38-11,5.19-1.14,10.44-2.05,15.5-2.74a93.75,93.75,0,0,1,15.15-.83,93.87,93.87,0,0,1,15.16.83c3.91.54,7.94,1.21,12,2,5.41,4.37,6.84,8.6,7.18,11A192.9,192.9,0,0,0,268.74,319.26Zm56.67,10.63c-7-.41-20.93-3.28-20.93-3.28l-4.93-11.91c5.75,4.93,20.93,3.29,25.86,6.57S332.39,330.3,325.41,329.89Z" style="fill:#fff"></path><path d="M341.67,384.93H165.49V322a8.14,8.14,0,0,1,7.85-8.15c1.24,0,2.59,0,4,0,4.66,0,9.93,0,14.06-1.64,11.45-4.59,26.44-8.24,43.36-10.55a117.17,117.17,0,0,1,18.82-1,118.1,118.1,0,0,1,18.78,1c16.92,2.31,31.92,6,43.37,10.55,4.13,1.66,9.4,1.66,14.05,1.64,1.44,0,2.79,0,4,0h0a8.13,8.13,0,0,1,7.84,8.15Zm-175.18-1H340.67V322a7.13,7.13,0,0,0-6.88-7.15c-1.22,0-2.56,0-4,0-4.74,0-10.11,0-14.43-1.71-11.37-4.56-26.28-8.19-43.13-10.49a116.09,116.09,0,0,0-18.64-1,116.39,116.39,0,0,0-18.68,1c-16.84,2.3-31.75,5.93-43.13,10.49-4.31,1.73-9.69,1.73-14.43,1.71-1.42,0-2.76,0-4,0a7.13,7.13,0,0,0-6.88,7.15Zm159.6-53.52-.71,0c-6.94-.41-20.87-3.27-21-3.29l-.27-.06L298.29,313l1.59,1.36c3.08,2.64,9.24,3.36,14.69,4,4.54.52,8.83,1,11.12,2.54,3.35,2.24,5.27,5.38,4.57,7.48C329.93,329.3,328.94,330.41,326.09,330.41Zm-21.25-4.24c1.94.39,14.26,2.85,20.6,3.22,2.16.12,3.53-.36,3.87-1.38.55-1.62-1.29-4.4-4.18-6.32-2.09-1.39-6.26-1.88-10.68-2.39-5.09-.59-10.32-1.19-13.78-3.2Zm-124.59,4.24c-2.84,0-3.84-1.11-4.17-2.08-.7-2.1,1.23-5.24,4.58-7.48,2.29-1.52,6.58-2,11.12-2.54,5.44-.63,11.61-1.35,14.69-4l1.58-1.36L202.23,327l-.26.06c-.14,0-14.07,2.88-21,3.29Zm25.43-14.31c-3.46,2-8.7,2.61-13.79,3.2-4.42.51-8.59,1-10.68,2.39-2.88,1.92-4.72,4.7-4.18,6.32.34,1,1.72,1.5,3.88,1.38,6.34-.37,18.66-2.83,20.6-3.22ZM216,324.18l.05-.7c.16-2.22,1.22-6.65,6.55-11.3l.1-.08.12,0c5-1.1,10.24-2,15.54-2.74a94.55,94.55,0,0,1,15.24-.84,94.5,94.5,0,0,1,15.21.84c4,.54,8,1.22,12,2l.12,0,.1.08c5.67,4.57,7.05,9.07,7.36,11.34l.11.73-.72-.17a189.45,189.45,0,0,0-19.1-3.57h0a93.66,93.66,0,0,0-15.07-.83,92.7,92.7,0,0,0-15.1.83A184.1,184.1,0,0,0,216.68,324ZM223.16,313c-4.46,3.93-5.72,7.63-6,9.83a187,187,0,0,1,21.24-4.08,94.55,94.55,0,0,1,15.24-.84,93.37,93.37,0,0,1,15.21.84h0c6.48.88,12.68,2,18.45,3.4-.48-2.26-2-6-6.77-9.88-3.9-.77-7.88-1.43-11.82-2a93.66,93.66,0,0,0-15.07-.83,93.84,93.84,0,0,0-15.1.83C233.27,311,228.11,311.94,223.16,313Z" style="fill:#263238"></path><rect x="165.75" y="373.4" width="175.25" height="15.6" style="fill:#fff"></rect><path d="M341.5,389.49H165.25V372.9H341.5Zm-175.25-1H340.5V373.9H166.25Z" style="fill:#263238"></path><rect x="341" y="372.98" width="4.51" height="16.01" style="fill:#fff"></rect><path d="M346,389.49H340.5v-17H346Zm-4.52-1H345v-15H341.5Z" style="fill:#263238"></path><rect x="161.44" y="372.98" width="4.51" height="16.01" style="fill:#fff"></rect><path d="M166.46,389.49h-5.52v-17h5.52Zm-4.52-1h3.52v-15h-3.52Z" style="fill:#263238"></path><path d="M334.52,425.15h0a3.38,3.38,0,0,1-3.38-3.38V406.84a3.38,3.38,0,0,1,3.38-3.38h0a3.37,3.37,0,0,1,3.37,3.38v14.93A3.37,3.37,0,0,1,334.52,425.15Z" style="fill:#263238"></path><path d="M334.52,425.65a3.88,3.88,0,0,1-3.88-3.88V406.84a3.88,3.88,0,1,1,7.75,0v14.93A3.88,3.88,0,0,1,334.52,425.65Zm0-21.69a2.88,2.88,0,0,0-2.88,2.88v14.93a2.88,2.88,0,1,0,5.75,0V406.84A2.88,2.88,0,0,0,334.52,404Z" style="fill:#263238"></path><path d="M171.29,425.15h0a3.37,3.37,0,0,1-3.37-3.38V406.84a3.37,3.37,0,0,1,3.37-3.38h0a3.38,3.38,0,0,1,3.38,3.38v14.93A3.38,3.38,0,0,1,171.29,425.15Z" style="fill:#263238"></path><path d="M171.29,425.65a3.88,3.88,0,0,1-3.87-3.88V406.84a3.88,3.88,0,1,1,7.75,0v14.93A3.88,3.88,0,0,1,171.29,425.65Zm0-21.69a2.88,2.88,0,0,0-2.87,2.88v14.93a2.88,2.88,0,1,0,5.75,0V406.84A2.88,2.88,0,0,0,171.29,404Z" style="fill:#263238"></path></g><g id="freepik--Furniture--inject-97"><path d="M354.47,425.15h0a2.27,2.27,0,0,1-2.27-2.27v-9a2.27,2.27,0,0,1,2.27-2.27h0a2.27,2.27,0,0,1,2.27,2.27v9A2.27,2.27,0,0,1,354.47,425.15Z" style="fill:#263238"></path><path d="M354.47,425.65a2.77,2.77,0,0,1-2.77-2.77v-9a2.77,2.77,0,1,1,5.54,0v9A2.77,2.77,0,0,1,354.47,425.65Zm0-13.57a1.77,1.77,0,0,0-1.77,1.77v9a1.77,1.77,0,1,0,3.54,0v-9A1.77,1.77,0,0,0,354.47,412.08Z" style="fill:#263238"></path><path d="M435.7,425.15h0a2.27,2.27,0,0,1-2.27-2.27v-9a2.27,2.27,0,0,1,2.27-2.27h0a2.28,2.28,0,0,1,2.28,2.27v9A2.28,2.28,0,0,1,435.7,425.15Z" style="fill:#263238"></path><path d="M435.7,425.65a2.77,2.77,0,0,1-2.77-2.77v-9a2.78,2.78,0,0,1,5.55,0v9A2.78,2.78,0,0,1,435.7,425.65Zm0-13.57a1.77,1.77,0,0,0-1.77,1.77v9a1.78,1.78,0,0,0,3.55,0v-9A1.78,1.78,0,0,0,435.7,412.08Z" style="fill:#263238"></path><rect x="350.51" y="298.66" width="89.28" height="116" style="fill:#fff"></rect><path d="M440.29,415.16H350v-117h90.28Zm-89.28-1h88.28v-115H351Z" style="fill:#263238"></path><rect x="350.51" y="298.66" width="89.28" height="34.12" style="fill:#fff"></rect><path d="M440.29,333.27H350V298.16h90.28Zm-89.28-1h88.28V299.16H351Z" style="fill:#263238"></path><rect x="350.51" y="298.66" width="89.28" height="4.55" style="fill:#fff"></rect><path d="M440.29,303.7H350v-5.54h90.28Zm-89.28-1h88.28v-3.54H351Z" style="fill:#263238"></path><path d="M408.79,319.13H381.5a1.14,1.14,0,0,1-1.14-1.14h0a1.14,1.14,0,0,1,1.14-1.14h27.29a1.14,1.14,0,0,1,1.14,1.14h0A1.14,1.14,0,0,1,408.79,319.13Z" style="fill:#fff"></path><path d="M408.8,319.63H381.5a1.64,1.64,0,0,1,0-3.28h27.3a1.64,1.64,0,0,1,0,3.28Zm-27.3-2.28a.64.64,0,0,0,0,1.28h27.3a.64.64,0,0,0,0-1.28Z" style="fill:#263238"></path><path d="M426.35,380V352.68a1.14,1.14,0,0,1,1.14-1.14h0a1.14,1.14,0,0,1,1.14,1.14V380a1.14,1.14,0,0,1-1.14,1.14h0A1.14,1.14,0,0,1,426.35,380Z" style="fill:#fff"></path><path d="M427.49,381.61a1.65,1.65,0,0,1-1.64-1.64v-27.3a1.64,1.64,0,0,1,3.28,0V380A1.65,1.65,0,0,1,427.49,381.61Zm0-29.57a.64.64,0,0,0-.64.63V380a.64.64,0,0,0,1.28,0v-27.3A.64.64,0,0,0,427.49,352Z" style="fill:#263238"></path><path d="M393.87,251s1.89-11.88-2.55-18.36-9.17-15-9.17-15,1.13,13.27,4.2,17.66S393.87,251,393.87,251Z" style="fill:#92E3A9"></path><path d="M394.07,252.91l-.67-1.71c0-.12-4.46-11.35-7.46-15.64-3.11-4.44-4.24-17.35-4.29-17.9l-.19-2.34,1.13,2.06c.05.08,4.76,8.62,9.14,15,4.5,6.57,2.71,18.22,2.63,18.71ZM382.91,220c.48,4,1.67,11.9,3.85,15,2.35,3.36,5.44,10.59,6.83,14,.32-3.6.54-11.36-2.69-16.05C387.83,228.47,384.6,222.94,382.91,220Z" style="fill:#263238"></path><path d="M394.54,255.56h-1c0-20.73,5.29-28,5.51-28.31l.8.6C399.8,227.92,394.54,235.22,394.54,255.56Z" style="fill:#263238"></path><path d="M393.37,258.61c-1.35-8.62-3.72-11.82-5.46-13a2.91,2.91,0,0,0-2.18-.61l-.25-1a3.82,3.82,0,0,1,2.93.71c1.93,1.25,4.53,4.65,5.95,13.71Z" style="fill:#263238"></path><path d="M398.9,267.81V253h-9v14.8a3.83,3.83,0,0,1-.82,2.37h0a33.74,33.74,0,0,0-7.24,20.88v5.85a1.73,1.73,0,0,0,1.73,1.74h21.71a1.74,1.74,0,0,0,1.74-1.74v-5.85a33.74,33.74,0,0,0-7.24-20.88h0A3.78,3.78,0,0,1,398.9,267.81Z" style="fill:#92E3A9"></path><path d="M405.23,299.14H383.52a2.23,2.23,0,0,1-2.23-2.23v-5.85a34.37,34.37,0,0,1,7.35-21.19,3.35,3.35,0,0,0,.71-2.07V252.51h10V267.8a3.36,3.36,0,0,0,.72,2.07,34.37,34.37,0,0,1,7.35,21.19v5.85A2.24,2.24,0,0,1,405.23,299.14Zm-14.88-45.63V267.8a4.35,4.35,0,0,1-.93,2.69,33.37,33.37,0,0,0-7.13,20.57v5.85a1.23,1.23,0,0,0,1.23,1.23h21.71a1.24,1.24,0,0,0,1.24-1.23v-5.85a33.38,33.38,0,0,0-7.14-20.57,4.35,4.35,0,0,1-.93-2.69V253.51Z" style="fill:#263238"></path><path d="M384.49,254.12h0a2.25,2.25,0,0,1-2.25-2.24l1.13-7.36h2.24l1.12,7.36A2.24,2.24,0,0,1,384.49,254.12Z" style="fill:#fff"></path><path d="M384.49,254.62a2.75,2.75,0,0,1-2.75-2.74l1.2-7.86H386l1.19,7.78A2.76,2.76,0,0,1,384.49,254.62Zm-.69-9.6L382.74,252a1.75,1.75,0,0,0,3.49-.07L385.18,245Z" style="fill:#263238"></path><path d="M384.49,234.31h0a2.24,2.24,0,0,1,2.24,2.24l-1.12,7.35h-2.24l-1.13-7.35A2.24,2.24,0,0,1,384.49,234.31Z" style="fill:#fff"></path><path d="M386,244.4h-3.1l-1.19-7.77a2.74,2.74,0,1,1,5.48-.08Zm-2.25-1h1.39l1.06-6.92a1.75,1.75,0,0,0-3.5.07Z" style="fill:#263238"></path><path d="M374.58,244.21h0a2.24,2.24,0,0,1,2.25-2.24l7.35,1.12v2.25l-7.35,1.12A2.25,2.25,0,0,1,374.58,244.21Z" style="fill:#fff"></path><path d="M376.89,247a2.74,2.74,0,1,1-.06-5.48l7.85,1.19v3.11L376.9,247Zm-.14-4.49a1.75,1.75,0,0,0,.08,3.5l6.85-1.05v-1.39Z" style="fill:#263238"></path><path d="M394.39,244.21h0a2.24,2.24,0,0,1-2.24,2.25l-7.35-1.12v-2.25l7.35-1.12A2.24,2.24,0,0,1,394.39,244.21Z" style="fill:#fff"></path><path d="M392.15,247l-7.85-1.19v-3.11l7.77-1.18h0a2.74,2.74,0,1,1,.07,5.48Zm-6.85-2.05,6.92,1.05a1.75,1.75,0,0,0-.07-3.49l-6.85,1.05Z" style="fill:#263238"></path><path d="M377.48,251.22h0a2.26,2.26,0,0,1,0-3.18l6-4.4,1.58,1.59-4.4,6A2.26,2.26,0,0,1,377.48,251.22Z" style="fill:#fff"></path><path d="M379.07,252.38a2.73,2.73,0,0,1-1.94-.81h0a2.75,2.75,0,0,1,0-3.88l6.4-4.71,2.19,2.2-4.66,6.33A2.75,2.75,0,0,1,379.07,252.38Zm4.36-8.08-5.65,4.15a1.74,1.74,0,0,0-.45,1.18,1.72,1.72,0,0,0,.51,1.23h0a1.76,1.76,0,0,0,2.46,0l4.1-5.58Z" style="fill:#263238"></path><path d="M391.49,237.21h0a2.23,2.23,0,0,1,0,3.17l-6,4.41-1.59-1.59,4.41-6A2.23,2.23,0,0,1,391.49,237.21Z" style="fill:#fff"></path><path d="M385.45,245.45l-2.19-2.2,4.66-6.34a2.76,2.76,0,0,1,3.93,0h0a2.76,2.76,0,0,1,0,3.88Zm-.88-2.3,1,1L391.2,240a1.75,1.75,0,0,0-.06-2.42,1.79,1.79,0,0,0-2.47,0Z" style="fill:#263238"></path><path d="M377.48,237.21h0a2.25,2.25,0,0,1,3.18,0l4.4,6-1.58,1.59-6-4.41A2.25,2.25,0,0,1,377.48,237.21Z" style="fill:#fff"></path><path d="M383.53,245.45l-6.34-4.66a2.75,2.75,0,0,1-.06-3.93h0a2.8,2.8,0,0,1,3.88,0l4.71,6.39Zm-4.46-8.4a1.72,1.72,0,0,0-1.23.51h0a1.75,1.75,0,0,0,0,2.47l5.58,4.1,1-1-4.15-5.64A1.68,1.68,0,0,0,379.07,237.05Z" style="fill:#263238"></path><path d="M391.49,251.22h0a2.25,2.25,0,0,1-3.17,0l-4.41-6,1.59-1.59,6,4.4A2.25,2.25,0,0,1,391.49,251.22Z" style="fill:#fff"></path><path d="M389.9,252.38a2.73,2.73,0,0,1-1.94-.81l-4.7-6.39,2.19-2.2,6.34,4.66a2.75,2.75,0,0,1-1.89,4.74Zm-5.33-7.1,4.15,5.64a1.84,1.84,0,0,0,2.42-.06h0a1.74,1.74,0,0,0,0-2.46l-5.59-4.1Z" style="fill:#263238"></path><path d="M388,244.21a3.55,3.55,0,1,1-3.54-3.54A3.55,3.55,0,0,1,388,244.21Z" style="fill:#fff"></path><path d="M384.49,248.26a4,4,0,1,1,4-4A4.06,4.06,0,0,1,384.49,248.26Zm0-7.09a3,3,0,1,0,3,3A3.05,3.05,0,0,0,384.49,241.17Z" style="fill:#263238"></path><path d="M398.71,235.18h0a1.63,1.63,0,0,1-1.63-1.64l.82-5.34h1.63l.82,5.34A1.63,1.63,0,0,1,398.71,235.18Z" style="fill:#fff"></path><path d="M398.71,235.68a2.14,2.14,0,0,1-2.13-2.14l.89-5.84H400l.88,5.77A2.14,2.14,0,0,1,398.71,235.68Zm-.38-7-.75,4.92a1.12,1.12,0,0,0,1.13,1.06,1.14,1.14,0,0,0,1.14-1.14l-.75-4.84Z" style="fill:#263238"></path><path d="M398.71,220.76h0a1.64,1.64,0,0,1,1.64,1.64l-.82,5.35H397.9l-.82-5.35A1.64,1.64,0,0,1,398.71,220.76Z" style="fill:#fff"></path><path d="M400,228.25h-2.49l-.88-5.78a2.13,2.13,0,1,1,4.26-.07Zm-1.63-1h.77l.75-4.93a1.13,1.13,0,0,0-1.14-1.06,1.14,1.14,0,0,0-1.13,1.14Z" style="fill:#263238"></path><path d="M391.51,228h0a1.63,1.63,0,0,1,1.63-1.63l5.35.81v1.64l-5.35.81A1.63,1.63,0,0,1,391.51,228Z" style="fill:#fff"></path><path d="M393.21,230.1A2.15,2.15,0,0,1,391,228a2.13,2.13,0,0,1,2.13-2.13l5.85.88v2.5l-5.77.88Zm-.14-3.27a1.14,1.14,0,0,0,.07,2.27l4.85-.74v-.78Z" style="fill:#263238"></path><path d="M405.92,228h0a1.63,1.63,0,0,1-1.63,1.63l-5.35-.81v-1.64l5.35-.81A1.63,1.63,0,0,1,405.92,228Z" style="fill:#fff"></path><path d="M404.29,230.1l-5.85-.88v-2.5l5.77-.88h0a2.13,2.13,0,1,1,.07,4.26Zm-4.85-1.74,4.92.75a1.14,1.14,0,0,0-.07-2.27l-4.85.74Z" style="fill:#263238"></path><path d="M393.62,233.07h0a1.63,1.63,0,0,1,0-2.31l4.36-3.21,1.15,1.16-3.2,4.36A1.65,1.65,0,0,1,393.62,233.07Z" style="fill:#fff"></path><path d="M394.75,234a2.07,2.07,0,0,1-1.48-.62h0a2.12,2.12,0,0,1,0-3l4.76-3.5,1.76,1.76-3.46,4.7A2.24,2.24,0,0,1,394.75,234Zm-.78-1.33a1.13,1.13,0,0,0,1.6,0l2.91-4-.55-.55-4,2.95a1.11,1.11,0,0,0-.28.75,1.14,1.14,0,0,0,.33.8Z" style="fill:#263238"></path><path d="M403.81,222.88h0a1.62,1.62,0,0,1,0,2.3l-4.36,3.21-1.15-1.16,3.2-4.35A1.63,1.63,0,0,1,403.81,222.88Z" style="fill:#fff"></path><path d="M399.4,229.05l-1.76-1.77,3.46-4.7a2.14,2.14,0,0,1,3.06-.06h0a2.14,2.14,0,0,1,0,3Zm-.45-1.87.55.55,4-2.95a1.12,1.12,0,0,0-.05-1.55h0a1.17,1.17,0,0,0-1.61,0Z" style="fill:#263238"></path><path d="M393.62,222.88h0a1.63,1.63,0,0,1,2.31,0l3.2,4.35L398,228.39l-4.36-3.21A1.62,1.62,0,0,1,393.62,222.88Z" style="fill:#fff"></path><path d="M398,229.05l-4.71-3.46a2.13,2.13,0,1,1,3-3.07l3.51,4.76Zm-3.26-6.15a1.11,1.11,0,0,0-.8.33,1.13,1.13,0,0,0,0,1.6l4,2.9.55-.55-3-4A1.13,1.13,0,0,0,394.77,222.9Z" style="fill:#263238"></path><path d="M403.81,233.07h0a1.65,1.65,0,0,1-2.31,0l-3.2-4.36,1.15-1.16,4.36,3.21A1.63,1.63,0,0,1,403.81,233.07Z" style="fill:#fff"></path><path d="M402.66,234a2.09,2.09,0,0,1-1.51-.62l-3.51-4.76,1.76-1.76,4.71,3.45a2.16,2.16,0,0,1,.05,3.07h0A2.09,2.09,0,0,1,402.66,234ZM399,228.76l2.95,4a1.14,1.14,0,0,0,1.56-1.66l-4-2.9Z" style="fill:#263238"></path><path d="M401.29,228a2.58,2.58,0,1,1-2.58-2.58A2.58,2.58,0,0,1,401.29,228Z" style="fill:#fff"></path><path d="M398.71,231.05a3.08,3.08,0,1,1,3.08-3.08A3.08,3.08,0,0,1,398.71,231.05Zm0-5.16a2.08,2.08,0,1,0,2.08,2.08A2.08,2.08,0,0,0,398.71,225.89Z" style="fill:#263238"></path><path d="M394.92,241.22s0-1.92,4.19-3.49,9.8-4.2,9.8-4.2a60.23,60.23,0,0,1-6.65,5.59C400,240.52,394.92,241.22,394.92,241.22Z" style="fill:#92E3A9"></path><path d="M394.42,241.8v-.58c0-.23.12-2.31,4.52-4,4.13-1.55,9.7-4.16,9.75-4.18l2.75-1.29-2.19,2.1a59.47,59.47,0,0,1-6.73,5.66c-2.33,1.44-7.32,2.14-7.53,2.17Zm11.85-6.52c-2,.89-4.7,2.06-7,2.91a7.07,7.07,0,0,0-3.61,2.4A21.73,21.73,0,0,0,402,238.7,37.7,37.7,0,0,0,406.27,235.28Z" style="fill:#263238"></path><path d="M400.54,255.09h0a1.75,1.75,0,0,1-1.76-1.75l.88-5.75h1.76l.87,5.75A1.75,1.75,0,0,1,400.54,255.09Z" style="fill:#fff"></path><path d="M400.54,255.59a2.26,2.26,0,0,1-2.26-2.25l1-6.25h2.62l.94,6.17A2.27,2.27,0,0,1,400.54,255.59Zm-.45-7.5-.81,5.32a1.26,1.26,0,0,0,2.51-.07l-.8-5.25Z" style="fill:#263238"></path><path d="M400.54,239.59h0a1.75,1.75,0,0,1,1.75,1.76l-.87,5.75h-1.76l-.88-5.75A1.76,1.76,0,0,1,400.54,239.59Z" style="fill:#fff"></path><path d="M401.85,247.6h-2.62l-.94-6.18a2.25,2.25,0,1,1,4.5-.07Zm-1.76-1h.9l.81-5.33a1.26,1.26,0,0,0-2.52.08Z" style="fill:#263238"></path><path d="M392.79,247.34h0a1.75,1.75,0,0,1,1.75-1.75l5.76.88v1.75l-5.76.88A1.76,1.76,0,0,1,392.79,247.34Z" style="fill:#fff"></path><path d="M394.61,249.59a2.25,2.25,0,1,1-.06-4.5l6.25.95v2.61l-6.18.94Zm-.14-3.51a1.26,1.26,0,0,0,.08,2.52l5.25-.81v-.89Z" style="fill:#263238"></path><path d="M408.29,247.34h0a1.76,1.76,0,0,1-1.76,1.76l-5.75-.88v-1.75l5.75-.88A1.75,1.75,0,0,1,408.29,247.34Z" style="fill:#fff"></path><path d="M406.53,249.6l-6.25-.95V246l6.18-.95h0a2.26,2.26,0,1,1,.06,4.51Zm-5.25-1.81,5.33.81a1.26,1.26,0,0,0-.08-2.51l-5.25.81Z" style="fill:#263238"></path><path d="M395.06,252.82h0a1.74,1.74,0,0,1,0-2.48l4.69-3.45,1.24,1.25-3.45,4.68A1.74,1.74,0,0,1,395.06,252.82Z" style="fill:#fff"></path><path d="M396.28,253.83a2.2,2.2,0,0,1-1.57-.65h0a2.26,2.26,0,0,1-.67-1.6,2.22,2.22,0,0,1,.67-1.59l5.09-3.75,1.85,1.85-3.71,5A2.31,2.31,0,0,1,396.28,253.83Zm3.42-6.28-4.34,3.19a1.26,1.26,0,0,0,.05,1.73h0a1.26,1.26,0,0,0,1.78,0l3.14-4.28Z" style="fill:#263238"></path><path d="M406,241.86h0a1.77,1.77,0,0,1,0,2.49l-4.69,3.44-1.24-1.24,3.45-4.69A1.76,1.76,0,0,1,406,241.86Z" style="fill:#fff"></path><path d="M401.28,248.45l-1.85-1.85,3.7-5a2.27,2.27,0,0,1,3.24-.06,2.26,2.26,0,0,1,0,3.19Zm-.53-1.95.63.64,4.34-3.2a1.23,1.23,0,0,0,.31-.84,1.25,1.25,0,0,0-.36-.88h0a1.28,1.28,0,0,0-1.78,0Z" style="fill:#263238"></path><path d="M395.06,241.86h0a1.76,1.76,0,0,1,2.48,0l3.45,4.69-1.24,1.24-4.69-3.44A1.76,1.76,0,0,1,395.06,241.86Z" style="fill:#fff"></path><path d="M399.8,248.45l-5-3.7a2.29,2.29,0,0,1-.72-1.65,2.23,2.23,0,0,1,.67-1.59h0a2.26,2.26,0,0,1,3.19,0l3.75,5.09Zm-3.5-6.6a1.24,1.24,0,0,0-.89.37h0a1.24,1.24,0,0,0,0,1.77l4.29,3.15.63-.64-3.19-4.34A1.25,1.25,0,0,0,396.3,241.85Z" style="fill:#263238"></path><path d="M406,252.82h0a1.74,1.74,0,0,1-2.48,0l-3.45-4.68,1.24-1.25,4.69,3.45A1.76,1.76,0,0,1,406,252.82Z" style="fill:#fff"></path><path d="M404.78,253.84a2.26,2.26,0,0,1-1.6-.66l-3.75-5.09,1.85-1.85,5,3.7a2.26,2.26,0,0,1,.05,3.24h0A2.25,2.25,0,0,1,404.78,253.84Zm-4-5.65,3.19,4.34a1.26,1.26,0,0,0,1.73-.06h0a1.27,1.27,0,0,0,.36-.89,1.29,1.29,0,0,0-.36-.89l-4.29-3.14Z" style="fill:#263238"></path><circle cx="400.54" cy="247.34" r="2.77" style="fill:#fff"></circle><path d="M400.54,250.62a3.28,3.28,0,1,1,3.27-3.28A3.27,3.27,0,0,1,400.54,250.62Zm0-5.55a2.28,2.28,0,1,0,2.27,2.27A2.27,2.27,0,0,0,400.54,245.07Z" style="fill:#263238"></path></g><g id="freepik--Chair--inject-97"><path d="M127.55,368.21c-2.33-6-7.65-10.51-13.39-9.75H58.61a4,4,0,0,0-4,4h0a4,4,0,0,0,4,4h56.65l3.91,1.3c3.91,1.31,2.61,7.83,7.17,8.48s4.57-2,4.57-2S127.57,368.27,127.55,368.21Z" style="fill:#92E3A9"></path><path d="M127.71,376.81a9.34,9.34,0,0,1-1.44-.11c-2.7-.38-3.58-2.64-4.35-4.64-.66-1.7-1.29-3.31-2.91-3.85l-3.83-1.28H58.61a4.49,4.49,0,1,1,0-9h55.55c5.55-.75,11.27,3.39,13.85,10,.16.31,2.07,3.73,3.33,6l.07.11v.13a2.43,2.43,0,0,1-.86,1.71A4.21,4.21,0,0,1,127.71,376.81Zm-12.3-17.93a9.36,9.36,0,0,0-1.18.08H58.61a3.49,3.49,0,1,0,0,7h56.73l4,1.33c2.06.69,2.8,2.6,3.52,4.44.77,2,1.44,3.71,3.56,4,1.61.23,2.81.06,3.47-.49a1.48,1.48,0,0,0,.51-.86c-3.26-5.86-3.29-5.93-3.31-6C124.86,362.63,120.18,358.88,115.41,358.88Z" style="fill:#263238"></path><path d="M59.58,350.13l-.42,0a4.47,4.47,0,0,1-4-4.87c2.35-25.11-7.66-40.32-7.76-40.47a4.47,4.47,0,0,1,7.39-5c.49.72,11.94,17.83,9.27,46.35A4.48,4.48,0,0,1,59.58,350.13Z" style="fill:#92E3A9"></path><path d="M59.58,350.63l-.47,0a5,5,0,0,1-4.48-5.42c2.33-24.82-7.57-40-7.68-40.14a5,5,0,0,1,8.22-5.6c.49.72,12,18,9.36,46.67A5,5,0,0,1,59.58,350.63ZM51.07,298.3a4,4,0,0,0-3.28,6.19c.1.15,10.2,15.61,7.84,40.8a4,4,0,1,0,7.9.74c2.66-28.33-8.7-45.3-9.18-46A4,4,0,0,0,51.07,298.3Z" style="fill:#263238"></path><path d="M110.41,425.15H62.31a2,2,0,0,1-2-2h0a2,2,0,0,1,2-2h48.13a15.83,15.83,0,0,0,12.87-6.34,15.37,15.37,0,0,0,2.34-13.25l-15.13-53.25a20.8,20.8,0,0,0-8-11.29,21.53,21.53,0,0,0-12.47-3.8H55.79a2,2,0,0,1-2-2h0a2,2,0,0,1,2-2H90.1a25.38,25.38,0,0,1,14.12,4.12,24.67,24.67,0,0,1,10.14,13.88l15.14,53.24a19.4,19.4,0,0,1-2.72,16.37A19.84,19.84,0,0,1,110.41,425.15Z" style="fill:#fff"></path><path d="M110.41,425.65H62.31a2.5,2.5,0,0,1,0-5h48.13a15.28,15.28,0,0,0,12.46-6.14,14.82,14.82,0,0,0,2.27-12.82L110,348.45a20.11,20.11,0,0,0-7.8-11,20.85,20.85,0,0,0-12.18-3.71H55.79a2.5,2.5,0,0,1,0-5H90.1a25.8,25.8,0,0,1,14.4,4.2,25.42,25.42,0,0,1,10.34,14.16L130,400.33a19.89,19.89,0,0,1-2.79,16.79A20.28,20.28,0,0,1,110.41,425.65Zm-48.1-4a1.5,1.5,0,0,0,0,3h48.1a19.29,19.29,0,0,0,16-8.1A18.91,18.91,0,0,0,129,400.6l-15.14-53.25a24.32,24.32,0,0,0-9.94-13.59,24.78,24.78,0,0,0-13.84-4H55.79a1.5,1.5,0,0,0,0,3H90.05a21.94,21.94,0,0,1,12.76,3.89A21.17,21.17,0,0,1,111,348.17l15.14,53.25a15.87,15.87,0,0,1-2.43,13.68,16.29,16.29,0,0,1-13.27,6.55Z" style="fill:#263238"></path></g><g id="freepik--Device--inject-97"><rect x="533.57" y="251.52" width="1" height="50.88" style="fill:#263238"></rect><rect x="539.46" y="251.52" width="1" height="50.88" style="fill:#263238"></rect><rect x="519.21" y="252.78" width="4.57" height="160.98" style="fill:#fff"></rect><path d="M524.29,414.26h-5.58v-162h5.58Zm-4.58-1h3.58v-160h-3.58Z" style="fill:#263238"></path><rect x="512.35" y="251.07" width="18.3" height="4.58" style="fill:#fff"></rect><path d="M531.15,256.14h-19.3v-5.57h19.3Zm-18.3-1h17.3v-3.57h-17.3Z" style="fill:#263238"></path><rect x="532.1" y="250.93" width="4.25" height="4.87" style="fill:#fff"></rect><path d="M536.84,256.3H531.6v-5.87h5.24Zm-4.24-1h3.24v-3.87H532.6Z" style="fill:#263238"></path><rect x="537.91" y="250.93" width="4.25" height="4.87" style="fill:#fff"></rect><path d="M542.66,256.3h-5.25v-5.87h5.25Zm-4.25-1h3.25v-3.87h-3.25Z" style="fill:#263238"></path><rect x="493.79" y="202.27" width="55.41" height="48.8" rx="6.18" style="fill:#fff"></rect><path d="M543,251.57H500a6.7,6.7,0,0,1-6.69-6.69V208.45a6.69,6.69,0,0,1,6.69-6.68h43a6.69,6.69,0,0,1,6.68,6.68v36.43A6.69,6.69,0,0,1,543,251.57Zm-43-48.8a5.69,5.69,0,0,0-5.69,5.68v36.43a5.69,5.69,0,0,0,5.69,5.69h43a5.69,5.69,0,0,0,5.68-5.69V208.45a5.69,5.69,0,0,0-5.68-5.68Z" style="fill:#263238"></path><rect x="498.37" y="207.86" width="45.75" height="30.5" rx="4.39" style="fill:#263238"></rect><path d="M539.73,238.86h-37a4.89,4.89,0,0,1-4.89-4.89V212.25a4.89,4.89,0,0,1,4.89-4.89h37a4.89,4.89,0,0,1,4.89,4.89V234A4.89,4.89,0,0,1,539.73,238.86Zm-37-30.5a3.89,3.89,0,0,0-3.89,3.89V234a3.89,3.89,0,0,0,3.89,3.89h37a3.89,3.89,0,0,0,3.89-3.89V212.25a3.89,3.89,0,0,0-3.89-3.89Z" style="fill:#263238"></path><path d="M535.48,244.46a2.55,2.55,0,1,1-2.54-2.54A2.54,2.54,0,0,1,535.48,244.46Z" style="fill:#fff"></path><path d="M532.94,247.5a3,3,0,1,1,3-3A3,3,0,0,1,532.94,247.5Zm0-5.08a2,2,0,1,0,2,2A2,2,0,0,0,532.94,242.42Z" style="fill:#263238"></path><path d="M526.84,244.46a2.55,2.55,0,1,1-2.55-2.54A2.55,2.55,0,0,1,526.84,244.46Z" style="fill:#fff"></path><path d="M524.29,247.5a3,3,0,1,1,3.05-3A3,3,0,0,1,524.29,247.5Zm0-5.08a2,2,0,1,0,2.05,2A2,2,0,0,0,524.29,242.42Z" style="fill:#263238"></path><path d="M539.61,337.86c-6.57,0-11.92-7.05-11.92-15.73S533,306.4,539.61,306.4s11.92,7.06,11.92,15.73S546.19,337.86,539.61,337.86Zm0-30.46c-6,0-10.92,6.61-10.92,14.73s4.9,14.73,10.92,14.73,10.92-6.61,10.92-14.73S545.63,307.4,539.61,307.4Z" style="fill:#263238"></path><path d="M538.11,333.65c-5.75,0-10.42-6.11-10.42-13.62s4.67-13.63,10.42-13.63,10.41,6.11,10.41,13.63S543.85,333.65,538.11,333.65Zm0-26.25c-5.2,0-9.42,5.67-9.42,12.63s4.22,12.62,9.42,12.62,9.41-5.66,9.41-12.62S543.3,307.4,538.11,307.4Z" style="fill:#263238"></path><path d="M542.61,333.65c-5.75,0-10.42-6.11-10.42-13.62s4.67-13.63,10.42-13.63S553,312.51,553,320,548.35,333.65,542.61,333.65Zm0-26.25c-5.2,0-9.42,5.67-9.42,12.63s4.22,12.62,9.42,12.62S552,327,552,320,547.8,307.4,542.61,307.4Z" style="fill:#263238"></path><rect x="494.48" y="302.72" width="54.37" height="3.04" style="fill:#263238"></rect><path d="M549.34,306.26H494v-4h55.36Zm-54.36-1h53.36v-2H495Z" style="fill:#263238"></path><rect x="481.17" y="305.14" width="80.22" height="3.8" style="fill:#fff"></rect><path d="M561.89,309.44H480.67v-4.8h81.22Zm-80.22-1h79.22v-2.8H481.67Z" style="fill:#263238"></path><path d="M489,425.15h0a2.27,2.27,0,0,1-2.27-2.27v-9a2.27,2.27,0,0,1,2.27-2.27h0a2.27,2.27,0,0,1,2.27,2.27v9A2.27,2.27,0,0,1,489,425.15Z" style="fill:#263238"></path><path d="M489,425.65a2.77,2.77,0,0,1-2.77-2.77v-9a2.78,2.78,0,0,1,5.55,0v9A2.78,2.78,0,0,1,489,425.65Zm0-13.57a1.77,1.77,0,0,0-1.77,1.77v9a1.78,1.78,0,0,0,3.55,0v-9A1.78,1.78,0,0,0,489,412.08Z" style="fill:#263238"></path><path d="M509.68,425.15h0a2.28,2.28,0,0,1-2.28-2.27v-9a2.28,2.28,0,0,1,2.28-2.27h0a2.27,2.27,0,0,1,2.27,2.27v9A2.27,2.27,0,0,1,509.68,425.15Z" style="fill:#263238"></path><path d="M509.68,425.65a2.78,2.78,0,0,1-2.78-2.77v-9a2.78,2.78,0,0,1,5.55,0v9A2.77,2.77,0,0,1,509.68,425.65Zm0-13.57a1.78,1.78,0,0,0-1.78,1.77v9a1.78,1.78,0,0,0,3.55,0v-9A1.77,1.77,0,0,0,509.68,412.08Z" style="fill:#263238"></path><path d="M554.34,425.15h0a2.28,2.28,0,0,1-2.28-2.27v-9a2.28,2.28,0,0,1,2.28-2.27h0a2.27,2.27,0,0,1,2.27,2.27v9A2.27,2.27,0,0,1,554.34,425.15Z" style="fill:#263238"></path><path d="M554.34,425.65a2.78,2.78,0,0,1-2.78-2.77v-9a2.78,2.78,0,0,1,5.55,0v9A2.77,2.77,0,0,1,554.34,425.65Zm0-13.57a1.78,1.78,0,0,0-1.78,1.77v9a1.78,1.78,0,0,0,3.55,0v-9A1.77,1.77,0,0,0,554.34,412.08Z" style="fill:#263238"></path><path d="M537.36,425.15h0a2.28,2.28,0,0,1-2.28-2.27v-9a2.28,2.28,0,0,1,2.28-2.27h0a2.27,2.27,0,0,1,2.27,2.27v9A2.27,2.27,0,0,1,537.36,425.15Z" style="fill:#263238"></path><path d="M537.36,425.65a2.78,2.78,0,0,1-2.78-2.77v-9a2.78,2.78,0,0,1,5.55,0v9A2.77,2.77,0,0,1,537.36,425.65Zm0-13.57a1.78,1.78,0,0,0-1.78,1.77v9a1.78,1.78,0,0,0,3.55,0v-9A1.77,1.77,0,0,0,537.36,412.08Z" style="fill:#263238"></path><polygon points="521.24 410.23 483.83 410.23 483.83 414.25 521.24 414.25 558.65 414.25 558.65 410.23 521.24 410.23" style="fill:#fff"></polygon><path d="M559.15,414.75H483.33v-5h75.82Zm-74.82-1h73.82v-3H484.33Z" style="fill:#263238"></path><rect x="500.52" y="410.23" width="41.73" height="4.03" style="fill:#fff"></rect><path d="M542.75,414.75H500v-5h42.73Zm-41.73-1h40.73v-3H501Z" style="fill:#263238"></path></g><g id="freepik--Buttons--inject-97"><rect x="145.46" y="178.95" width="215.39" height="14.36" style="fill:#fff"></rect><path d="M361.35,193.81H145V178.45H361.35Zm-215.39-1H360.35V179.45H146Z" style="fill:#263238"></path><rect x="215.53" y="187.92" width="75.25" height="3.48" style="fill:#fff"></rect><path d="M291.28,191.9H215v-4.48h76.25Zm-75.25-1h74.25v-2.48H216Z" style="fill:#263238"></path><rect x="145.46" y="171.77" width="215.39" height="14.36" style="fill:#fff"></rect><path d="M361.35,186.63H145V171.27H361.35Zm-215.39-1H360.35V172.27H146Z" style="fill:#263238"></path><rect x="145.46" y="174.27" width="215.39" height="9.35" style="fill:#fff"></rect><path d="M361.35,184.12H145V173.77H361.35Zm-215.39-1H360.35v-8.35H146Z" style="fill:#263238"></path><circle cx="314.22" cy="179.16" r="2.94" style="fill:#fff"></circle><path d="M314.22,182.6a3.44,3.44,0,1,1,3.43-3.44A3.44,3.44,0,0,1,314.22,182.6Zm0-5.88a2.44,2.44,0,1,0,2.43,2.44A2.44,2.44,0,0,0,314.22,176.72Z" style="fill:#263238"></path><circle cx="289.05" cy="179.16" r="2.94" style="fill:#fff"></circle><path d="M289.05,182.6a3.44,3.44,0,1,1,3.44-3.44A3.44,3.44,0,0,1,289.05,182.6Zm0-5.88a2.44,2.44,0,1,0,2.44,2.44A2.45,2.45,0,0,0,289.05,176.72Z" style="fill:#263238"></path><circle cx="336.73" cy="179.16" r="2.94" style="fill:#fff"></circle><path d="M336.73,182.6a3.44,3.44,0,1,1,3.44-3.44A3.44,3.44,0,0,1,336.73,182.6Zm0-5.88a2.44,2.44,0,1,0,2.44,2.44A2.44,2.44,0,0,0,336.73,176.72Z" style="fill:#263238"></path><rect x="331.36" y="187.76" width="17.37" height="3.54" style="fill:#92E3A9"></rect><path d="M349.23,191.81H330.86v-4.55h18.37Zm-17.37-1h16.37v-2.55H331.86Z" style="fill:#263238"></path><rect x="159.63" y="187.76" width="17.37" height="3.54" style="fill:#92E3A9"></rect><path d="M177.5,191.81H159.13v-4.55H177.5Zm-17.37-1H176.5v-2.55H160.13Z" style="fill:#263238"></path></g><g id="freepik--Door--inject-97"><rect x="576.15" y="113" width="128.12" height="312.29" style="fill:#fff"></rect><path d="M704.76,425.79H575.65V112.5H704.76Zm-128.11-1H703.76V113.5H576.65Z" style="fill:#263238"></path><rect x="579.33" y="118.38" width="121.74" height="301.52" style="fill:#fff"></rect><path d="M701.58,420.41H578.83V117.88H701.58Zm-121.75-1H700.58V118.88H579.83Z" style="fill:#263238"></path><rect x="585.22" y="124.44" width="109.98" height="161.75" style="fill:#263238"></rect><path d="M695.69,286.68h-111V123.94h111Zm-110-1h109V124.94h-109Z" style="fill:#263238"></path><rect x="585.22" y="293.93" width="109.98" height="118.91" style="fill:#92E3A9"></rect><path d="M695.69,413.34h-111V293.42h111Zm-110-1h109V294.42h-109Z" style="fill:#263238"></path><rect x="582.15" y="225.1" width="13.35" height="42.04" style="fill:#fff"></rect><path d="M596,267.64H581.65v-43H596Zm-13.35-1H595v-41H582.65Z" style="fill:#263238"></path></g></svg>